# xmcd
#
# Track frame offsets:
#	150
#	13474
#	28155
#	40757
#	54779
#	72573
#	84511
#	104613
#	119089
#	139565
#	153847
#	166947
#	182592
#	195882
#	213649
#	228876
#
# Disc length: 3247 seconds
# Revision: 0
# Processed by: cddbd v1.5.2PL0 Copyright (c) Steve Scherf et al.
# Submitted via: dBpowerAMP V12.0
#
DISCID=d60cad10
DTITLE=Mariachi Vargas de Tecalitlán - 16 RAZONES PARA CORTARSE LAS VENAS
DYEAR=2015
DGENRE=Ranchera
TTITLE0=Se Me Hizo Fácil
TTITLE1=La Diferencia
TTITLE2=Vieras Cuántas Ganas Tengo
TTITLE3=Que Nadie Sepa Mi Sufrir
TTITLE4=Por Tu Maldito Amor
TTITLE5=Me Corto Las Venas
TTITLE6=Lástima Que Seas Ajena
TTITLE7=Puñalada Trapera
TTITLE8=Amor Ajeno
TTITLE9=Cuadno El Destino
TTITLE10=De Qué Manera Te Olvido
TTITLE11=Tú, Sólo Tú
TTITLE12=Declárate Inocente
TTITLE13=Pena De Amores
TTITLE14=Fallaste Corazón
TTITLE15=Tu Cárcel
EXTD=
EXTT0=
EXTT1=
EXTT2=
EXTT3=
EXTT4=
EXTT5=
EXTT6=
EXTT7=
EXTT8=
EXTT9=
EXTT10=
EXTT11=
EXTT12=
EXTT13=
EXTT14=
EXTT15=
PLAYORDER=
